<svg viewBox="0 0 250 250" fill="none" xmlns="http://www.w3.org/2000/svg">
<rect width="250" height="250" fill="none"/>
<g clip-path="url(#clip0_37_378)">
<path d="M75.0125 93.75C75.0125 90.4348 76.3294 87.2554 78.6736 84.9112C81.0178 82.567 84.1972 81.25 87.5125 81.25H162.512C165.828 81.25 169.007 82.567 171.351 84.9112C173.695 87.2554 175.012 90.4348 175.012 93.75V156.25C175.012 159.565 173.695 162.745 171.351 165.089C169.007 167.433 165.828 168.75 162.512 168.75H87.5125C84.1972 168.75 81.0178 167.433 78.6736 165.089C76.3294 162.745 75.0125 159.565 75.0125 156.25V93.75ZM81.2625 150V156.25C81.2625 157.908 81.9209 159.497 83.093 160.669C84.2651 161.842 85.8548 162.5 87.5125 162.5H162.512C164.17 162.5 165.76 161.842 166.932 160.669C168.104 159.497 168.762 157.908 168.762 156.25V134.375L145.156 122.206C144.57 121.913 143.906 121.811 143.259 121.915C142.612 122.019 142.014 122.325 141.55 122.787L118.362 145.975L101.737 134.9C101.137 134.5 100.417 134.321 99.6996 134.391C98.9819 134.462 98.3108 134.779 97.7999 135.287L81.2625 150ZM112.512 109.375C112.512 106.889 111.525 104.504 109.767 102.746C108.008 100.988 105.624 100 103.137 100C100.651 100 98.2665 100.988 96.5083 102.746C94.7502 104.504 93.7625 106.889 93.7625 109.375C93.7625 111.861 94.7502 114.246 96.5083 116.004C98.2665 117.762 100.651 118.75 103.137 118.75C105.624 118.75 108.008 117.762 109.767 116.004C111.525 114.246 112.512 111.861 112.512 109.375Z" fill="black" fill-opacity="0.25"/>
</g>
<defs>
<clipPath id="clip0_37_378">
<rect width="101" height="88" fill="white" transform="translate(75 81)"/>
</clipPath>
</defs>
</svg>
