<?xml version="1.0" encoding="utf-8"?>
<!DOCTYPE svg PUBLIC "-//W3C//DTD SVG 1.1//EN" "http://www.w3.org/Graphics/SVG/1.1/DTD/svg11.dtd">
<svg version="1.1" id="Layer_1" xmlns="http://www.w3.org/2000/svg" xmlns:xlink="http://www.w3.org/1999/xlink" x="0px" y="0px" viewBox="0 0 302 319" enable-background="new 0 0 302 319" xml:space="preserve">
<g>
	<defs>
		<path id="SVGID_1_" d="M165.469,22.212c-4.92-0.586-9.917-0.923-14.994-0.923c-5.077,0-10.074,0.337-14.995,0.923L120.156,9.597
			c-8.936,1.968-17.552,4.776-25.761,8.355l-4.979,19.2c-8.794,4.911-16.934,10.843-24.262,17.646l-19.791-1.19
			c-5.993,6.758-11.341,14.095-15.956,21.921l7.238,18.459c-4.175,8.99-7.321,18.548-9.277,28.539l-16.704,10.679
			c-0.428,4.46-0.664,8.976-0.664,13.549c0,4.572,0.236,9.089,0.664,13.549l16.704,10.679c1.956,9.99,5.102,19.551,9.276,28.539
			l-7.237,18.457c4.615,7.827,9.962,15.165,15.955,21.924l19.792-1.19c7.327,6.803,15.467,12.735,24.262,17.646l4.979,19.2
			c6.713,2.928,13.71,5.308,20.92,7.165v-0.809c-4.468-2.552-7.515-7.306-7.515-12.82c0-4.118,1.684-7.839,4.396-10.523
			c-2.712-2.687-4.396-6.407-4.396-10.525c0-4.025,1.617-7.664,4.221-10.334c-3.664-13.973-10.388-27.03-20.204-37.828
			c-13.271-14.599-21.161-34.161-20.506-55.604c1.248-40.815,34.597-74.743,75.388-76.637c45.458-2.111,82.976,34.12,82.976,79.113
			c0,20.453-7.771,39.063-20.511,53.093c-9.818,10.813-16.611,23.84-20.292,37.795c2.642,2.676,4.278,6.347,4.278,10.402
			c0,4.118-1.685,7.839-4.396,10.525c2.712,2.685,4.396,6.405,4.396,10.523c0,5.515-3.047,10.269-7.516,12.82v0.809
			c7.211-1.857,14.206-4.237,20.92-7.165l4.979-19.2c8.794-4.91,16.934-10.843,24.261-17.645l19.792,1.19
			c5.993-6.76,11.34-14.097,15.955-21.923l-7.235-18.458c4.174-8.989,7.319-18.549,9.275-28.539l16.704-10.68
			c0.426-4.46,0.664-8.977,0.664-13.549c0-4.573-0.238-9.089-0.664-13.549l-16.704-10.679c-1.956-9.991-5.102-19.549-9.275-28.539
			l7.235-18.458c-4.614-7.826-9.961-15.163-15.954-21.92l-19.792,1.188c-7.327-6.802-15.467-12.735-24.261-17.645l-4.98-19.2
			c-8.209-3.58-16.824-6.388-25.761-8.356L165.469,22.212z"/>
	</defs>
	<clipPath id="SVGID_2_">
		<use xlink:href="#SVGID_1_"  overflow="visible"/>
	</clipPath>

	<polygon clip-path="url(#SVGID_2_)" fill="currentColor" points="-124.833,167.83 128.184,-129.098 425.783,124.49
		172.766,421.418 	"/>
</g>
<g>
	<defs>
		<path id="SVGID_4_" d="M124.105,282.723c-0.018,0.403-0.119,0.782-0.119,1.191c0,14.629,11.859,26.488,26.489,26.488
			c14.63,0,26.489-11.859,26.489-26.488c0-0.409-0.101-0.788-0.12-1.191H124.105z"/>
	</defs>
	<clipPath id="SVGID_5_">
		<use xlink:href="#SVGID_4_"  overflow="visible"/>
	</clipPath>

	<polygon clip-path="url(#SVGID_5_)" fill="currentColor" points="110.322,298.759 146.271,256.569 190.628,294.366
		154.678,336.556 	"/>
</g>
</svg>
